<svg width="108" height="40" viewBox="0 0 108 40" fill="none" xmlns="http://www.w3.org/2000/svg">
<path id="scoot" fill-rule="evenodd" clip-rule="evenodd" d="M107.097 31.8563V38.3821H98.6971C97.7905 38.3821 97.0505 37.9833 96.4771 37.1857C95.9038 36.3881 95.6171 35.373 95.6171 34.1403V17.9345H89.7371V11.4086H95.6171V0.314697H100.657V11.4086H107.817V17.9345H100.657V30.2248C100.657 31.3125 101.017 31.8563 101.737 31.8563H107.097ZM9.12 39.1435C11.7333 39.1435 13.76 38.3459 15.2 36.7507C16.64 35.1555 17.36 33.0164 17.36 30.3336V30.0073C17.36 27.5782 16.72 25.6839 15.44 24.3244C14.16 22.9648 12.5067 22.14 10.48 21.85C8.72 21.5962 7.50667 21.279 6.84 20.8983C6.17333 20.5176 5.84 19.8922 5.84 19.0221C5.84 18.4058 6.05333 17.8892 6.48 17.4722C6.90667 17.0553 7.54667 16.8468 8.4 16.8468C9.33333 16.8468 10.0933 17.1278 10.68 17.6898C11.2667 18.2517 11.68 19.0221 11.92 20.001L16.48 17.4994C16.2667 16.7381 15.96 15.9495 15.56 15.1338C15.16 14.3181 14.64 13.5749 14 12.9042C13.36 12.2334 12.58 11.6896 11.66 11.2727C10.74 10.8558 9.65333 10.6473 8.4 10.6473C7.44 10.6473 6.50667 10.8286 5.6 11.1911C4.69333 11.5537 3.89333 12.0884 3.2 12.7954C2.50667 13.5024 1.94667 14.3634 1.52 15.3785C1.09333 16.3937 0.88 17.5719 0.88 18.9134V19.2397C0.88 21.8137 1.54 23.7624 2.86 25.0857C4.18 26.409 5.96 27.1976 8.2 27.4513C9.02667 27.5601 9.71333 27.7051 10.26 27.8864C10.8067 28.0677 11.24 28.2943 11.56 28.5662C11.88 28.8381 12.1 29.1281 12.22 29.4363C12.34 29.7444 12.4 30.0798 12.4 30.4424C12.4 31.0587 12.1667 31.6297 11.7 32.1554C11.2333 32.6811 10.3733 32.9439 9.12 32.9439C7.70667 32.9439 6.66 32.5089 5.98 31.6388C5.3 30.7686 4.85333 29.7535 4.64 28.5934L0 30.6599C0.133333 31.6025 0.393333 32.5723 0.78 33.5693C1.16667 34.5663 1.72 35.4727 2.44 36.2884C3.16 37.1041 4.06667 37.7839 5.16 38.3277C6.25333 38.8716 7.57333 39.1435 9.12 39.1435ZM31.5743 39.1435C34.401 39.1435 36.661 38.1646 38.3543 36.2068C40.0476 34.2491 41.121 31.675 41.5743 28.4846L36.6143 26.7988C36.3743 28.5752 35.8476 29.9892 35.0343 31.0406C34.221 32.0919 33.041 32.6176 31.4943 32.6176C30.7743 32.6176 30.0943 32.4636 29.4543 32.1554C28.8143 31.8472 28.2543 31.385 27.7743 30.7686C27.2943 30.1523 26.9143 29.3819 26.6343 28.4574C26.3543 27.5329 26.2143 26.4725 26.2143 25.2761V24.9498C26.2143 23.7534 26.3543 22.6748 26.6343 21.714C26.9143 20.7533 27.2943 19.9376 27.7743 19.2668C28.2543 18.5961 28.8143 18.0795 29.4543 17.717C30.0943 17.3544 30.7743 17.1731 31.4943 17.1731C33.041 17.1731 34.241 17.7532 35.0943 18.9134C35.9477 20.0735 36.4543 21.4512 36.6143 23.0464L41.5743 21.3062C41.121 18.1158 40.0343 15.5417 38.3143 13.5839C36.5943 11.6262 34.3476 10.6473 31.5743 10.6473C30.1343 10.6473 28.781 10.9736 27.5143 11.6262C26.2477 12.2788 25.141 13.2214 24.1943 14.454C23.2477 15.6867 22.5077 17.1731 21.9743 18.9134C21.441 20.6536 21.1743 22.6113 21.1743 24.7866V25.4392C21.1743 27.6145 21.441 29.5541 21.9743 31.2581C22.5077 32.9621 23.241 34.3941 24.1743 35.5543C25.1076 36.7144 26.2076 37.6026 27.4743 38.219C28.741 38.8353 30.1076 39.1435 31.5743 39.1435ZM57.9286 38.219C56.6886 38.8353 55.3886 39.1435 54.0286 39.1435C52.6686 39.1435 51.3686 38.8353 50.1286 38.219C48.8886 37.6026 47.7886 36.7053 46.8286 35.5271C45.8686 34.3488 45.1086 32.8986 44.5486 31.1765C43.9886 29.4544 43.7086 27.4695 43.7086 25.2217V24.5691C43.7086 22.3576 43.9886 20.3907 44.5486 18.6686C45.1086 16.9465 45.8686 15.4873 46.8286 14.2909C47.7886 13.0945 48.8886 12.1881 50.1286 11.5718C51.3686 10.9555 52.6686 10.6473 54.0286 10.6473C55.3886 10.6473 56.6886 10.9555 57.9286 11.5718C59.1686 12.1881 60.2686 13.0945 61.2286 14.2909C62.1886 15.4873 62.9486 16.9465 63.5086 18.6686C64.0686 20.3907 64.3486 22.3576 64.3486 24.5691V25.2217C64.3486 27.4695 64.0686 29.4544 63.5086 31.1765C62.9486 32.8986 62.1886 34.3488 61.2286 35.5271C60.2686 36.7053 59.1686 37.6026 57.9286 38.219ZM54.0285 32.6174C53.3085 32.6174 52.6285 32.4542 51.9885 32.1279C51.3485 31.8016 50.7885 31.3303 50.3085 30.714C49.8285 30.0977 49.4485 29.3454 49.1685 28.4571C48.8885 27.5689 48.7485 26.5628 48.7485 25.4389V24.3513C48.7485 23.2274 48.8885 22.2213 49.1685 21.3331C49.4485 20.4449 49.8285 19.6926 50.3085 19.0762C50.7885 18.4599 51.3485 17.9886 51.9885 17.6623C52.6285 17.336 53.3085 17.1729 54.0285 17.1729C54.7485 17.1729 55.4285 17.336 56.0685 17.6623C56.7085 17.9886 57.2685 18.4599 57.7485 19.0762C58.2285 19.6926 58.6085 20.4449 58.8885 21.3331C59.1685 22.2213 59.3085 23.2274 59.3085 24.3513V25.4389C59.3085 26.5628 59.1685 27.5689 58.8885 28.4571C58.6085 29.3454 58.2285 30.0977 57.7485 30.714C57.2685 31.3303 56.7085 31.8016 56.0685 32.1279C55.4285 32.4542 54.7485 32.6174 54.0285 32.6174ZM80.6228 38.219C79.3828 38.8353 78.0828 39.1435 76.7228 39.1435C75.3628 39.1435 74.0628 38.8353 72.8228 38.219C71.5828 37.6026 70.4828 36.7053 69.5228 35.5271C68.5628 34.3488 67.8028 32.8986 67.2428 31.1765C66.6828 29.4544 66.4028 27.4695 66.4028 25.2217V24.5691C66.4028 22.3576 66.6828 20.3907 67.2428 18.6686C67.8028 16.9465 68.5628 15.4873 69.5228 14.2909C70.4828 13.0945 71.5828 12.1881 72.8228 11.5718C74.0628 10.9555 75.3628 10.6473 76.7228 10.6473C78.0828 10.6473 79.3828 10.9555 80.6228 11.5718C81.8628 12.1881 82.9628 13.0945 83.9228 14.2909C84.8828 15.4873 85.6428 16.9465 86.2028 18.6686C86.7628 20.3907 87.0428 22.3576 87.0428 24.5691V25.2217C87.0428 27.4695 86.7628 29.4544 86.2028 31.1765C85.6428 32.8986 84.8828 34.3488 83.9228 35.5271C82.9628 36.7053 81.8628 37.6026 80.6228 38.219ZM76.7229 32.6174C76.0029 32.6174 75.3229 32.4542 74.6829 32.1279C74.0429 31.8016 73.4829 31.3303 73.0029 30.714C72.5229 30.0977 72.1429 29.3454 71.8629 28.4571C71.5829 27.5689 71.4429 26.5628 71.4429 25.4389V24.3513C71.4429 23.2274 71.5829 22.2213 71.8629 21.3331C72.1429 20.4449 72.5229 19.6926 73.0029 19.0762C73.4829 18.4599 74.0429 17.9886 74.6829 17.6623C75.3229 17.336 76.0029 17.1729 76.7229 17.1729C77.4429 17.1729 78.1229 17.336 78.7629 17.6623C79.4029 17.9886 79.9629 18.4599 80.4429 19.0762C80.9229 19.6926 81.3029 20.4449 81.5829 21.3331C81.8629 22.2213 82.0029 23.2274 82.0029 24.3513V25.4389C82.0029 26.5628 81.8629 27.5689 81.5829 28.4571C81.3029 29.3454 80.9229 30.0977 80.4429 30.714C79.9629 31.3303 79.4029 31.8016 78.7629 32.1279C78.1229 32.4542 77.4429 32.6174 76.7229 32.6174Z" fill="#495567"/>
</svg>
